<svg xmlns="http://www.w3.org/2000/svg" width="79.967" height="79.967" viewBox="0 0 79.967 79.967">
  <g id="Raggruppa_1334" data-name="Raggruppa 1334" transform="translate(0)">
    <path id="Tracciato_2962" data-name="Tracciato 2962" d="M743.655,54.715a39.977,39.977,0,1,1-39.977-39.983,39.98,39.98,0,0,1,39.977,39.983" transform="translate(-663.7 -14.732)" fill="#293033"/>
    <path id="Tracciato_2963" data-name="Tracciato 2963" d="M670.538,43.407s1.974,8.139,4.67,9.577c1.564.834,4.941,2.152,7.5,3.111a2.493,2.493,0,0,0,3.269-1.726c.346-1.248,1.292-2.493,3.608-2.823,5.033-.719,7.55-6.831,13.122-10.606s7.01-8.628,4.134-10.965-16.933-5.762-19.809-4.863a40.92,40.92,0,0,0-16.5,18.294" transform="translate(-666.999 -19.67)" fill="#b9c8cd"/>
    <path id="Tracciato_2965" data-name="Tracciato 2965" d="M705.9,97.958a2.421,2.421,0,0,1,2.4-2.464c3.391-.031,9.182-.067,10.2.025,1.452.132,6.731,6.335,9.635,7.787s5.015,2.244,5.015,4.883-4.533,6.231-5.853,7.155-4.43,5.422-7.741,11.19c-1.06,1.846-6.731-1.98-5.94-4.356s.924-11.482-1.056-12.934-7.259-3.431-6.863-5.411a38.243,38.243,0,0,0,.2-5.876" transform="translate(-684.19 -54.248)" fill="#b9c8cd"/>
    <path id="Tracciato_2964" data-name="Tracciato 2964" d="M782.147,90.322s-5.812-7.219-6.531-9.556.719-6.471-.18-9.707-6.831-1.618-9.527-2.337a5.254,5.254,0,0,1-2.8-2.711,12.192,12.192,0,0,1-1.452-6.222c.049-2.338.479-5.251,2.276-5.628,2-.418,1.637-5.074,1.833-5.951.675-3.008,5.493-1.4,6.256-6.272.278-1.776,6.014-7.453,6.014-7.453a39.546,39.546,0,0,1,13.459,30.042,39.962,39.962,0,0,1-9.347,25.793" transform="translate(-711.54 -24.264)" fill="#b9c8cd"/>
  </g>
</svg>
