<svg height="23" viewBox="0 0 21 23" width="21" xmlns="http://www.w3.org/2000/svg"><g fill="#fff"><path d="m17.521875 23h-14.04375c-1.55549275-.0072989-2.81469016-1.2864836-2.821875-2.8666667l.76125-9.6533333c0-1.66666667 2.165625-2.81333333 3.59625-2.81333333h10.9725c1.430625 0 3.59625 1.14666666 3.59625 2.86666663l.7614903 9.5466667c.0067538.7673694-.2866284 1.5061284-.8158395 2.0537418-.5292111.5476133-1.250896.8592183-2.0062758.8662582zm-12.508125-14c-.945 0-2.28375.8-2.28375 1.5333333l-.76125 9.6533334c.02829639.8259385.69584965 1.4805 1.509375 1.4800006h14.04375c.8306334-.0072441 1.5022447-.6895159 1.509375-1.533334l-.76125-9.5466666c0-.7866667-1.3125-1.5866667-2.28375-1.5866667z"/><path d="m14.4375 11.6666667h-.65625c-.3624369 0-.65625-.2984769-.65625-.6666667s.2938131-.6666667.65625-.6666667v-5.3333333c0-1.47275933-1.1752525-2.66666667-2.625-2.66666667h-1.3125c-1.44974747 0-2.625 1.19390734-2.625 2.66666667v5.3333333c.36243687 0 .65625.2984769.65625.6666667s-.29381313.6666667-.65625.6666667h-.65625c-.36243687 0-.65625-.2984769-.65625-.6666667v-6.02666667c0-2.209139 1.7628788-4 3.9375-4h1.3125c2.1746212 0 3.9375 1.790861 3.9375 4v6.02666667c0 .3681898-.2938131.6666667-.65625.6666667z"/></g></svg>