<svg height="24" viewBox="0 0 24 24" width="24" xmlns="http://www.w3.org/2000/svg"><g fill="none"><g stroke="#fff" stroke-linecap="round" stroke-linejoin="round"><path d="m0 5.662v-.97a4.773 4.773 0 0 1 4.06-4.67 4.5 4.5 0 0 1 4.94 4.478v1.38" stroke-width="1.5" transform="translate(7.5 2.008)"/><path d="m5.751 14h6c4.02 0 4.74-1.61 4.95-3.57l.75-6c.27-2.44-.43-4.43-4.7-4.43h-8c-4.27 0-4.97 1.99-4.7 4.43l.75 6c.21 1.96.93 3.57 4.95 3.57z" stroke-width="1.5" transform="translate(3.249 8)"/><path d="m.495.5h.005" stroke-width="2" transform="translate(15.001 11.5)"/><path d="m.495.5h.005" stroke-width="2" transform="translate(8 11.5)"/></g><path d="m0 0h24v24h-24z" opacity="0"/></g></svg>