<svg height="75" viewBox="0 0 80 75" width="80" xmlns="http://www.w3.org/2000/svg"><path d="m1355.6 2228.494c-2.363 0-4.279-2.408-4.279-5.378v-3.861a2.121 2.121 0 0 0 -1.841-2.314h-18.08a2.121 2.121 0 0 0 -1.84 2.314v3.861c0 2.97-1.916 5.378-4.279 5.378s-4.279-2.408-4.279-5.378v-3.861c0-7.207 4.665-13.07 10.4-13.07h18.082c5.734 0 10.4 5.863 10.4 13.07v3.861c-.006 2.97-1.921 5.378-4.284 5.378z" fill="#2a2f33" transform="translate(-1300.439 -2206.185)"/><path d="m1273.708 2263.522v41.627a8.482 8.482 0 0 0 8.513 8.451h62.979a8.482 8.482 0 0 0 8.513-8.451v-41.627a134.167 134.167 0 0 1 -80 0" fill="#2a2f33" transform="translate(-1273.708 -2238.6)"/><g fill="#b9c8ce"><path d="m1345.2 2230.263h-62.974c-4.7 0-8.513 4.917-8.513 10.981v9.655a104.891 104.891 0 0 0 80 0v-9.655c0-6.064-3.811-10.981-8.513-10.981" transform="translate(-1273.708 -2218.997)"/><path d="m1360.536 2271.121a8.69 8.69 0 1 1 -8.69-8.69 8.69 8.69 0 0 1 8.69 8.69" transform="translate(-1311.845 -2236.239)"/></g></svg>