<svg xmlns="http://www.w3.org/2000/svg" width="80" height="75" viewBox="0 0 80 75">
  <g id="Raggruppa_1333" data-name="Raggruppa 1333" transform="translate(0 5.378)">
    <path id="Tracciato_2930" data-name="Tracciato 2930" d="M1355.6,2228.494c-2.363,0-4.279-2.408-4.279-5.378v-3.861a2.121,2.121,0,0,0-1.841-2.314H1331.4a2.121,2.121,0,0,0-1.84,2.314v3.861c0,2.97-1.916,5.378-4.279,5.378s-4.279-2.408-4.279-5.378v-3.861c0-7.207,4.665-13.07,10.4-13.07h18.082c5.734,0,10.4,5.863,10.4,13.07v3.861C1359.878,2226.086,1357.963,2228.494,1355.6,2228.494Z" transform="translate(-1300.439 -2211.563)" fill="#2a2f33"/>
    <path id="Tracciato_2931" data-name="Tracciato 2931" d="M1273.708,2263.522v41.627a8.482,8.482,0,0,0,8.513,8.451H1345.2a8.482,8.482,0,0,0,8.513-8.451v-41.627a134.167,134.167,0,0,1-80,0" transform="translate(-1273.708 -2243.978)" fill="#2a2f33"/>
    <path id="Tracciato_2929" data-name="Tracciato 2929" d="M1345.2,2230.263h-62.974c-4.7,0-8.513,4.917-8.513,10.981v9.655a104.891,104.891,0,0,0,80,0v-9.655c0-6.064-3.811-10.981-8.513-10.981" transform="translate(-1273.708 -2224.375)" fill="#b9c8ce"/>
    <path id="Tracciato_2932" data-name="Tracciato 2932" d="M1360.536,2271.121a8.69,8.69,0,1,1-8.69-8.69,8.69,8.69,0,0,1,8.69,8.69" transform="translate(-1311.845 -2241.617)" fill="#b9c8ce"/>
  </g>
</svg>
