<svg height="72.271" viewBox="0 0 112.227 72.271" width="112.227" xmlns="http://www.w3.org/2000/svg"><path d="m412.508 1332.971c-10.194 4.969-13.423.208-16.429-2.088a8.035 8.035 0 0 1 -3.231-5.265 1.238 1.238 0 0 0 -1.431-1.142c-15.152 5.97-18.532 2.438-20.753-.915s1.9-3.767 1.9-3.767l27.174-8.193c6.948-2.458 16.949 1.622 16.949 1.622l16.456 31.945-23.882 12.28-21.712-.944-4.207-16.939" fill="#2a2f33" transform="translate(-335.024 -1301.633)"/><path d="m375.619 1371.834c1.625-2.052.029-3.734-.282-4.4a1.144 1.144 0 0 1 .041-1.637c.406-.513 1.124-.362 1.841-.211s5.781 3.822 8.441 3.287a4.341 4.341 0 0 0 .55-.217 4.225 4.225 0 0 0 1.976-1.4 4.064 4.064 0 0 0 -.445-5.779c-.514-.408-4.24-2.262-2.992-3.283a1.6 1.6 0 0 1 1.593-.328 1.064 1.064 0 0 1 .249.117c.482.382 5.7 3.6 6.55 3.939a3.761 3.761 0 0 0 4.7-1.312c2.844-3.591-.552-6.7-1.066-7.107s-5.114-4.031-4.707-4.544a1.364 1.364 0 0 1 1.176-.594.836.836 0 0 1 .408.178 2.972 2.972 0 0 0 .721.3c.073.023.171.04.252.062.164.044.331.083.523.116a4.972 4.972 0 0 0 2.336-.158c.089-.029.176-.036.264-.071s.189-.113.285-.16a4.365 4.365 0 0 0 1.548-1.239c2.439-3.078.274-5.628-2.041-7.461l-15.428-12.22c-23.535-15.758-30.707-17.227-33.171-18.344-1.53.876-2.45 7.754-8.545 15.451-5.892 7.439-8.626 11.354-8.464 12.735l3.6 2.852c2.827 2.239 3.471 4.31 8.889 11.175 3.158 3.882 3.158 3.882 7.785 7.547l11.573 9.167a40.28 40.28 0 0 0 5.474 3.775c4.31 2.357 5.453.914 6.367-.24" fill="#b9c8ce" transform="translate(-320.141 -1301.069)"/><path d="m412.508 1332.33c-8.215 2.286-13.423.208-16.429-2.089a8.034 8.034 0 0 1 -3.231-5.265 1.238 1.238 0 0 0 -1.431-1.142c-15.152 5.97-18.532 2.438-20.753-.915s1.9-3.767 1.9-3.767l27.174-8.193c6.948-2.458 25.687-1.666 25.687-1.666l8.8 35.185" fill="#2a2f33" transform="translate(-335.024 -1300.991)"/><path d="m314.025 1332.518 7.438 5.264a3.415 3.415 0 0 0 4.759-.814l21.638-30.573a3.414 3.414 0 0 0 -.815-4.759l-7.438-5.264a3.414 3.414 0 0 0 -4.759.814l-21.638 30.574a3.414 3.414 0 0 0 .815 4.759" fill="#2a2f33" transform="translate(-312.583 -1295.744)"/><path d="m461.3 1296.76-8.562 3.118a3.415 3.415 0 0 0 -2.04 4.376l12.818 35.194a3.414 3.414 0 0 0 4.376 2.04l8.562-3.118a3.413 3.413 0 0 0 2.04-4.376l-12.813-35.194a3.415 3.415 0 0 0 -4.377-2.04" fill="#b9c8ce" transform="translate(-366.478 -1296.06)"/></svg>