<svg xmlns="http://www.w3.org/2000/svg" width="154.827" height="63.195" viewBox="0 0 154.827 63.195">
  <g id="Raggruppa_1400" data-name="Raggruppa 1400" transform="translate(-870 -1385.305)">
    <g id="Raggruppa_1395" data-name="Raggruppa 1395" transform="translate(873.844 1401.333)">
      <path id="Tracciato_3047" data-name="Tracciato 3047" d="M8.979,92.816c8.332,0,23.3,6.741,23.3,16.355s.743,17.189-7.59,17.189-17.21-8.449-19.254-17.189S.646,92.816,8.979,92.816" transform="translate(-3.312 -92.816)" fill="#2a2f33"/>
      <path id="Tracciato_3048" data-name="Tracciato 3048" d="M42.979,101.816c8.333,0,32.026,2.625,32.026,12.238,0,9.192.251,21.564-8.008,22.557-.023.009-7.933-1.251-8.3-1.251-8.333,0-17.21-8.448-19.254-17.189s-4.8-16.355,3.535-16.355" transform="translate(2.148 -91.371)" fill="#2a2f33"/>
    </g>
    <g id="Raggruppa_1394" data-name="Raggruppa 1394" transform="translate(870 1385.305)">
      <path id="Tracciato_3049" data-name="Tracciato 3049" d="M19.552,93.329a7.215,7.215,0,0,0,3.955-.034C44.63,87.073,59.533,83.047,63.538,82.583c2.8-.308,5.339,1.214,8.3,3.93,4.657,4.258,8.88,8.451,12.845,12.56,1.9,1.973,4.229.428,5.25-2.821q1.114-4.1-2.872-5.479a117.035,117.035,0,0,1-10.677-7.03,18.542,18.542,0,0,0-14.67-4.594A541.057,541.057,0,0,0,7.33,87.667a1.16,1.16,0,0,0-.067,2.25Z" transform="translate(1.03 -79.006)" fill="#b9c8cd" fill-rule="evenodd"/>
      <path id="Tracciato_3050" data-name="Tracciato 3050" d="M75.728,116.411a3.17,3.17,0,0,0,4.247,3.084c2.384-.866,5.492-1.936,9.39-3.219,15.139-4.991,27.783-11.166,38.693-16.545a2.125,2.125,0,0,1,3.151.886c1.277,2.205,3.258,6.158,6.473,12.345,1.161,2.214,2.95,1.8,3.93-.607,1.544-3.772,1.265-5.886,0-6.973a55.161,55.161,0,0,1-7.58-8.3c-1.436-1.893-4.222-2.171-9.633-.779-19.209,4.946-34.73,9.215-46.493,13.066a2.985,2.985,0,0,0-2.048,2.749Z" transform="translate(12.16 -76.37)" fill="#b9c8cd" fill-rule="evenodd"/>
      <path id="Tracciato_3051" data-name="Tracciato 3051" d="M84.473,108.534a88.772,88.772,0,0,0-25.088-5.957c-5.716-.58-10.5-.193-21.639-.664-1.779-.079-3.366-1.25-4.979-2.658A35.431,35.431,0,0,0,23.193,94L4.374,88.774C1.1,89.111-.133,90.125.052,91.9c-.186,3.922.116,6.847,1.045,8.687A31.24,31.24,0,0,1,3.8,106.949c1.857,7.776,4.315,14.159,9.024,17.317,8.795,5.919,22.34,6.579,21.587-7.358-.129-2.393,0-4.922-.222-7.58,3.507.443,5.5,2.814,6.416,7.03,1.472,6.722,3.482,12.186,6.644,15.61,7.145,7.738,16.982,10.323,28.283,7.637,4.2-1,6.644-4.751,7.645-10.188.564-3.076.883-5.479,2.077-6.48,1.853-1.554,1.8-9.888,1.8-9.888a4.182,4.182,0,0,0-2.59-4.515M29.139,120.427c-.321,2.85-.328,4.2-3.1,4.272h0c-7.66.2-11.9-2.314-16-9.749a34.924,34.924,0,0,1-3.93-18.569c.043-1.322,1.571-2.553,4.315-1.857,9.615,2.443,15.352,6.28,16.66,9.687,1.9,3.987,2.565,11.49,2.051,16.217m45.876,15.887v0c-7.987,1.064-14.6-.15-20.032-3.708-6.545-4.279-10.045-11.671-10.3-21.811-.064-2.565,1.664-4.679,5.651-4.708,12.173-.072,20.575,2.522,25.3,6.751,1.879,1.679,2.636,4.093,2.879,7.312.786,10.452-.157,15.725-3.5,16.167" transform="translate(0 -77.438)" fill="#b9c8cd" fill-rule="evenodd"/>
    </g>
  </g>
</svg>
