<svg height="69.099" viewBox="0 0 63.402 69.099" width="63.402" xmlns="http://www.w3.org/2000/svg"><path d="m67.379 2346.056a9.77 9.77 0 1 0 19.35-1.881h-19.161a9.808 9.808 0 0 0 -.189 1.881" fill="#b9c8ce" transform="translate(-45.343 -2286.728)"/><path d="m65.638 2255.031v-12.625c0-11.466-9.043-21.464-20.773-21.808a21.208 21.208 0 0 0 -22.091 20.931v13.359a11.37 11.37 0 0 1 -4.743 9.208c-2.735 1.98-5.638 4.827-5.638 7.99h63.2c0-3.161-2.78-6.006-5.4-7.986a11.364 11.364 0 0 1 -4.554-9.069" fill="#2a2f33" transform="translate(-12.393 -2212.862)"/><path d="m22.806 2233.367a25.9 25.9 0 0 1 11.5-16.563" fill="#b9c8ce" stroke="#b9c8ce" stroke-linecap="round" stroke-linejoin="round" stroke-width="8" transform="translate(-18.187 -2210.756)"/><path d="m141.22 2233.367a25.9 25.9 0 0 0 -11.5-16.563" fill="#b9c8ce" stroke="#b9c8ce" stroke-linecap="round" stroke-linejoin="round" stroke-width="8" transform="translate(-82.338 -2210.756)"/><path d="m87.574 2216.375h-10.362v-8.026a5.181 5.181 0 0 1 10.362 0z" fill="#2a2f33" transform="translate(-50.792 -2203.169)"/></svg>