<svg xmlns="http://www.w3.org/2000/svg" width="63.402" height="69.099" viewBox="0 0 63.402 69.099">
  <g id="Raggruppa_1220" data-name="Raggruppa 1220" transform="translate(-885.768 -1844.421)">
    <path id="Tracciato_2949" data-name="Tracciato 2949" d="M67.379,2346.056a9.77,9.77,0,1,0,19.35-1.881H67.568a9.808,9.808,0,0,0-.189,1.881" transform="translate(840.425 -442.307)" fill="#b9c8ce"/>
    <path id="Tracciato_2947" data-name="Tracciato 2947" d="M65.638,2255.031v-12.625c0-11.466-9.043-21.464-20.773-21.808a21.208,21.208,0,0,0-22.091,20.931v13.359a11.37,11.37,0,0,1-4.743,9.208c-2.735,1.98-5.638,4.827-5.638,7.99h63.2c0-3.161-2.78-6.006-5.4-7.986a11.364,11.364,0,0,1-4.554-9.069" transform="translate(873.375 -368.441)" fill="#2a2f33"/>
    <path id="Tracciato_2951" data-name="Tracciato 2951" d="M22.806,2233.367a25.9,25.9,0,0,1,11.5-16.563" transform="translate(867.581 -366.335)" fill="#b9c8ce" stroke="#b9c8ce" stroke-linecap="round" stroke-linejoin="round" stroke-width="8"/>
    <path id="Tracciato_2948" data-name="Tracciato 2948" d="M141.22,2233.367a25.9,25.9,0,0,0-11.5-16.563" transform="translate(803.43 -366.335)" fill="#b9c8ce" stroke="#b9c8ce" stroke-linecap="round" stroke-linejoin="round" stroke-width="8"/>
    <path id="Tracciato_2950" data-name="Tracciato 2950" d="M87.574,2216.375H77.212v-8.026a5.181,5.181,0,0,1,10.362,0Z" transform="translate(834.976 -358.748)" fill="#2a2f33"/>
  </g>
</svg>
