<svg id="Raggruppa_1320" data-name="Raggruppa 1320" xmlns="http://www.w3.org/2000/svg" width="76.509" height="74.062" viewBox="0 0 76.509 74.062">
  <path id="Tracciato_3018" data-name="Tracciato 3018" d="M969.493,1952.907v40.173a4.771,4.771,0,0,0,4.77,4.771h66.967a4.771,4.771,0,0,0,4.771-4.771v-40.173Z" transform="translate(-969.493 -1923.789)" fill="#5c40d1"/>
  <path id="Tracciato_3019" data-name="Tracciato 3019" d="M1044.287,1919.8l-34.072-24.911a4.18,4.18,0,0,0-4.936,0L971.207,1919.8a4.183,4.183,0,0,0-1.714,3.376v.025H1046v-.025a4.183,4.183,0,0,0-1.714-3.376" transform="translate(-969.493 -1894.084)" fill="#2a2f33"/>
  <path id="Tracciato_3020" data-name="Tracciato 3020" d="M1044.872,1948.221H991a1.5,1.5,0,0,0-1.5,1.5V1987.9a1.5,1.5,0,0,0,1.5,1.5h53.868a1.5,1.5,0,0,0,1.5-1.5v-38.183a1.5,1.5,0,0,0-1.5-1.5" transform="translate(-979.6 -1921.422)" fill="#f8f8ff"/>
  <path id="Tracciato_3021" data-name="Tracciato 3021" d="M979.131,1997.851h67.047a4.69,4.69,0,0,0,4.69-4.69v-40.254Z" transform="translate(-974.36 -1923.789)" fill="#b9c8ce"/>
  <path id="Tracciato_3022" data-name="Tracciato 3022" d="M969.493,1952.907v40.254a4.69,4.69,0,0,0,4.69,4.69h67.047Z" transform="translate(-969.493 -1923.789)" fill="#b9c8ce"/>
</svg>
