<svg height="74.062" viewBox="0 0 76.509 74.062" width="76.509" xmlns="http://www.w3.org/2000/svg"><path d="m969.493 1952.907v40.173a4.771 4.771 0 0 0 4.77 4.771h66.967a4.771 4.771 0 0 0 4.771-4.771v-40.173z" fill="#5c40d1" transform="translate(-969.493 -1923.789)"/><path d="m1044.287 1919.8-34.072-24.911a4.18 4.18 0 0 0 -4.936 0l-34.072 24.911a4.183 4.183 0 0 0 -1.714 3.376v.025h76.507v-.025a4.183 4.183 0 0 0 -1.714-3.376" fill="#2a2f33" transform="translate(-969.493 -1894.084)"/><path d="m1044.872 1948.221h-53.872a1.5 1.5 0 0 0 -1.5 1.5v38.179a1.5 1.5 0 0 0 1.5 1.5h53.868a1.5 1.5 0 0 0 1.5-1.5v-38.183a1.5 1.5 0 0 0 -1.5-1.5" fill="#f8f8ff" transform="translate(-979.6 -1921.422)"/><g fill="#b9c8ce"><path d="m979.131 1997.851h67.047a4.69 4.69 0 0 0 4.69-4.69v-40.254z" transform="translate(-974.36 -1923.789)"/><path d="m969.493 1952.907v40.254a4.69 4.69 0 0 0 4.69 4.69h67.047z" transform="translate(-969.493 -1923.789)"/></g></svg>