<svg height="31" width="152.375" xmlns="http://www.w3.org/2000/svg"><path d="M113.809 1.774a1.915 1.915 0 0 0-1.07-1.087 1.848 1.848 0 0 0-1.506 0 1.968 1.968 0 0 0-1.069 1.083l-8.439 25.038a.76.76 0 0 1 .119.12c.889 1.2.584 1.228 1.492 2.412l1.648-.064 8.815-25.975a1.928 1.928 0 0 0 .01-1.528M50.234 19.099 61.15 4.592a1.928 1.928 0 0 0 .383-1.479 1.921 1.921 0 0 0-.773-1.317 1.855 1.855 0 0 0-1.463-.368 1.971 1.971 0 0 0-1.3.789L47.45 16.236a21.022 21.022 0 0 1 2.785 2.863M3.963 3.542c-.361-.124-.72-.253-1.082-.376C1.923 2.844.961 2.53 0 2.215l.11 25.923a1.927 1.927 0 0 0 .6 1.4 1.923 1.923 0 0 0 1.416.569 1.85 1.85 0 0 0 1.38-.6 1.957 1.957 0 0 0 .545-1.417zm126.39 0c-.361-.124-.72-.253-1.082-.376-.959-.323-1.92-.637-2.881-.952l.109 25.923a2 2 0 0 0 2.019 1.973 1.85 1.85 0 0 0 1.38-.6 1.957 1.957 0 0 0 .545-1.417zM95.441 1.774a1.917 1.917 0 0 0-1.07-1.087 1.848 1.848 0 0 0-1.506 0 1.968 1.968 0 0 0-1.074 1.085L83.352 26.81a.759.759 0 0 1 .119.12c.889 1.2.566.738 1.474 1.921l1.644.49 8.836-26.04a1.928 1.928 0 0 0 .01-1.528" fill="#d2d6d9"/><path d="M51.517 16.977c.327 1.076.1 5.208.1 6.54v5.346a1.93 1.93 0 0 1-1.956 1.956 1.962 1.962 0 0 1-1.413-.565 1.852 1.852 0 0 1-.587-1.391v-11.08L37.27 3.221a2.427 2.427 0 0 1-.348-1.3 1.866 1.866 0 0 1 .522-1.3 1.938 1.938 0 0 1 1.5-.565 1.909 1.909 0 0 1 1.631 1s10.4 14.613 10.786 15.501a4.053 4.053 0 0 1 .156.425M23.68.635a1.928 1.928 0 0 0-1.412-.587 1.856 1.856 0 0 0-1.391.587 1.964 1.964 0 0 0-.566 1.413v23.473L5.329 3.884l-.019.012-1.948-2.819A1.924 1.924 0 0 0 2.078.253 1.646 1.646 0 0 0 .635.628a2.144 2.144 0 0 0-.266 2.728l15.238 22.021c.012.018.027.032.039.049l2.927 4.226a2.729 2.729 0 0 0 2.3 1.174h.527A2.8 2.8 0 0 0 23.422 30a2.688 2.688 0 0 0 .848-2V2.047a1.928 1.928 0 0 0-.59-1.412M74.74.108a1.927 1.927 0 0 1 1.523.106 1.937 1.937 0 0 1 1.005 1.151l9.379 27.034a1.852 1.852 0 0 1-.111 1.5 1.959 1.959 0 0 1-1.155.983 1.927 1.927 0 0 1-2.473-1.229l-9.38-27.031a1.966 1.966 0 0 1 .084-1.517 1.849 1.849 0 0 1 1.129-1m18.357.003a1.927 1.927 0 0 1 1.523.106 1.935 1.935 0 0 1 1.005 1.151l9.383 27.034a1.852 1.852 0 0 1-.111 1.5 1.959 1.959 0 0 1-1.155.983 1.928 1.928 0 0 1-2.473-1.229L91.886 2.622a1.966 1.966 0 0 1 .084-1.517 1.849 1.849 0 0 1 1.129-1m58.351 9.876A14.369 14.369 0 0 0 139.604.435v.013c-.221-.04-.442-.08-.664-.11a15.579 15.579 0 0 0-1.96-.134L135.245.19 128.31.14h-.028a1.907 1.907 0 1 0 .028 3.814l6.935-.051 1.734-.012a11.953 11.953 0 0 1 1.5.08c.28.033.557.079.833.132v.006c.237.043.468.1.7.15a11.646 11.646 0 0 1 1.365.444h.01a1.886 1.886 0 0 0 .246.07 11.356 11.356 0 0 1 3.623 2.362 11.081 11.081 0 0 1 3.207 8.059 11.081 11.081 0 0 1-3.207 8.059 11.356 11.356 0 0 1-3.628 2.356 1.784 1.784 0 0 0-.246.07h-.01a11.776 11.776 0 0 1-1.365.444c-.23.055-.46.108-.7.15v.006a11.1 11.1 0 0 1-.833.132 11.953 11.953 0 0 1-1.5.08l-1.734-.013-6.935-.05a1.907 1.907 0 1 0-.028 3.814h.028l6.935-.051 1.734-.013a15.578 15.578 0 0 0 1.96-.134c.222-.03.443-.071.664-.11v.016a14.37 14.37 0 0 0 11.847-9.55 16.718 16.718 0 0 0 .924-5.211 16.715 16.715 0 0 0-.924-5.211" fill="#fff"/></svg>