<svg id="Raggruppa_1090" data-name="Raggruppa 1090" xmlns="http://www.w3.org/2000/svg" xmlns:xlink="http://www.w3.org/1999/xlink" width="147.455" height="30" viewBox="0 0 147.455 30">
  <defs>
    <clipPath id="clip-path">
      <rect id="Rettangolo_440" data-name="Rettangolo 440" width="147.455" height="30" fill="none"/>
    </clipPath>
    <clipPath id="clip-path-3">
      <rect id="Rettangolo_434" data-name="Rettangolo 434" width="11.842" height="27.884" fill="none"/>
    </clipPath>
    <clipPath id="clip-path-4">
      <rect id="Rettangolo_435" data-name="Rettangolo 435" width="13.647" height="17.099" fill="none"/>
    </clipPath>
    <clipPath id="clip-path-5">
      <rect id="Rettangolo_436" data-name="Rettangolo 436" width="3.924" height="26.995" fill="none"/>
    </clipPath>
    <clipPath id="clip-path-6">
      <rect id="Rettangolo_437" data-name="Rettangolo 437" width="3.923" height="26.995" fill="none"/>
    </clipPath>
    <clipPath id="clip-path-7">
      <rect id="Rettangolo_438" data-name="Rettangolo 438" width="11.843" height="27.884" fill="none"/>
    </clipPath>
  </defs>
  <g id="Raggruppa_1046" data-name="Raggruppa 1046" clip-path="url(#clip-path)">
    <g id="Raggruppa_1045" data-name="Raggruppa 1045" transform="translate(0 0)">
      <g id="Raggruppa_1044" data-name="Raggruppa 1044" clip-path="url(#clip-path)">
        <g id="Raggruppa_1031" data-name="Raggruppa 1031" transform="translate(98.439 0.511)" opacity="0.5">
          <g id="Raggruppa_1030" data-name="Raggruppa 1030">
            <g id="Raggruppa_1029" data-name="Raggruppa 1029" clip-path="url(#clip-path-3)">
              <path id="Tracciato_2126" data-name="Tracciato 2126" d="M405.888,3.253A1.852,1.852,0,0,0,404.853,2.2a1.786,1.786,0,0,0-1.458,0,1.9,1.9,0,0,0-1.035,1.048L394.193,27.48a.764.764,0,0,1,.116.116c.86,1.159.565,1.188,1.444,2.334l1.6-.063,8.53-25.137a1.867,1.867,0,0,0,.01-1.479" transform="translate(-394.193 -2.046)" fill="#4b5e69"/>
            </g>
          </g>
        </g>
        <g id="Raggruppa_1034" data-name="Raggruppa 1034" transform="translate(45.917 1.384)" opacity="0.5">
          <g id="Raggruppa_1033" data-name="Raggruppa 1033">
            <g id="Raggruppa_1032" data-name="Raggruppa 1032" clip-path="url(#clip-path-4)">
              <path id="Tracciato_2127" data-name="Tracciato 2127" d="M186.565,22.642,197.126,8.625a1.93,1.93,0,0,0-.378-2.7,1.8,1.8,0,0,0-1.416-.355,1.9,1.9,0,0,0-1.259.762l-10.2,13.546a20.292,20.292,0,0,1,2.695,2.766" transform="translate(-183.87 -5.543)" fill="#4b5e69"/>
            </g>
          </g>
        </g>
        <g id="Raggruppa_1037" data-name="Raggruppa 1037" transform="translate(0 2.144)" opacity="0.5">
          <g id="Raggruppa_1036" data-name="Raggruppa 1036">
            <g id="Raggruppa_1035" data-name="Raggruppa 1035" clip-path="url(#clip-path-5)">
              <path id="Tracciato_2128" data-name="Tracciato 2128" d="M3.835,9.871c-.349-.12-.7-.245-1.047-.363C1.86,9.194.93,8.891,0,8.586L.106,33.672A1.863,1.863,0,0,0,.69,35.031a1.859,1.859,0,0,0,1.37.55A1.788,1.788,0,0,0,3.4,35a1.9,1.9,0,0,0,.528-1.371Z" transform="translate(0 -8.586)" fill="#4b5e69"/>
            </g>
          </g>
        </g>
        <g id="Raggruppa_1040" data-name="Raggruppa 1040" transform="translate(122.309 2.144)" opacity="0.5">
          <g id="Raggruppa_1039" data-name="Raggruppa 1039">
            <g id="Raggruppa_1038" data-name="Raggruppa 1038" clip-path="url(#clip-path-6)">
              <path id="Tracciato_2129" data-name="Tracciato 2129" d="M493.614,9.871c-.349-.12-.7-.245-1.047-.363-.928-.313-1.858-.617-2.788-.921l.106,25.086a1.936,1.936,0,0,0,1.954,1.909A1.788,1.788,0,0,0,493.174,35a1.9,1.9,0,0,0,.528-1.371Z" transform="translate(-489.779 -8.586)" fill="#4b5e69"/>
            </g>
          </g>
        </g>
        <g id="Raggruppa_1043" data-name="Raggruppa 1043" transform="translate(80.664 0.511)" opacity="0.5">
          <g id="Raggruppa_1042" data-name="Raggruppa 1042">
            <g id="Raggruppa_1041" data-name="Raggruppa 1041" clip-path="url(#clip-path-7)">
              <path id="Tracciato_2130" data-name="Tracciato 2130" d="M334.71,3.253A1.853,1.853,0,0,0,333.675,2.2a1.788,1.788,0,0,0-1.458,0,1.9,1.9,0,0,0-1.034,1.048L323.015,27.48a.775.775,0,0,1,.116.116c.86,1.159.548.714,1.426,1.859l1.591.474,8.551-25.2a1.867,1.867,0,0,0,.01-1.479" transform="translate(-323.015 -2.046)" fill="#4b5e69"/>
            </g>
          </g>
        </g>
        <path id="Tracciato_2131" data-name="Tracciato 2131" d="M157.2,16.575c.317,1.041.094,11.5.094,11.5a1.868,1.868,0,0,1-1.893,1.893,1.9,1.9,0,0,1-1.367-.547,1.792,1.792,0,0,1-.568-1.346V17.351L143.417,3.259A2.349,2.349,0,0,1,143.081,2a1.809,1.809,0,0,1,.5-1.263,1.879,1.879,0,0,1,1.451-.547,1.85,1.85,0,0,1,1.579.968S156.681,15.3,157.054,16.164a3.928,3.928,0,0,1,.151.411" transform="translate(-107.35 -0.141)" fill="#47545d"/>
        <path id="Tracciato_2132" data-name="Tracciato 2132" d="M22.916.757A1.865,1.865,0,0,0,21.549.189,1.793,1.793,0,0,0,20.2.757a1.9,1.9,0,0,0-.547,1.367V24.839L5.157,3.9l-.018.012L3.253,1.188A1.865,1.865,0,0,0,2.01.387,1.587,1.587,0,0,0,.615.75,2.072,2.072,0,0,0,.357,3.39L15.1,24.7c.012.017.026.031.038.048l2.832,4.09a2.641,2.641,0,0,0,2.23,1.136h.5a2.7,2.7,0,0,0,1.956-.8,2.6,2.6,0,0,0,.82-1.935V2.124A1.867,1.867,0,0,0,22.916.757" transform="translate(0 -0.142)" fill="#47545d"/>
        <path id="Tracciato_2133" data-name="Tracciato 2133" d="M285.777.105a1.864,1.864,0,0,1,1.473.1,1.87,1.87,0,0,1,.973,1.114l9.08,26.165a1.79,1.79,0,0,1-.108,1.454,1.893,1.893,0,0,1-1.118.951,1.866,1.866,0,0,1-2.394-1.19L284.6,2.537a1.9,1.9,0,0,1,.081-1.467,1.787,1.787,0,0,1,1.092-.965" transform="translate(-213.449 0)" fill="#47545d"/>
        <path id="Tracciato_2134" data-name="Tracciato 2134" d="M356.913.105a1.864,1.864,0,0,1,1.473.1,1.867,1.867,0,0,1,.973,1.114l9.08,26.165a1.79,1.79,0,0,1-.108,1.454,1.893,1.893,0,0,1-1.118.951,1.866,1.866,0,0,1-2.394-1.19L355.74,2.537a1.9,1.9,0,0,1,.081-1.467,1.787,1.787,0,0,1,1.092-.965" transform="translate(-266.821 0)" fill="#47545d"/>
        <path id="Tracciato_2135" data-name="Tracciato 2135" d="M514.028,10.066A13.9,13.9,0,0,0,502.564.824s0,.01,0,.016c-.214-.038-.427-.078-.642-.107a15.11,15.11,0,0,0-1.9-.13L498.347.591,491.635.542h-.027a1.846,1.846,0,1,0,.027,3.692l6.712-.049,1.678-.012a11.519,11.519,0,0,1,1.451.078c.27.032.539.076.806.128v.006c.229.041.452.092.675.145a11.247,11.247,0,0,1,1.32.429l.009,0a1.791,1.791,0,0,0,.238.068,10.99,10.99,0,0,1,3.511,2.28,10.723,10.723,0,0,1,3.1,7.8,10.723,10.723,0,0,1-3.1,7.8,10.99,10.99,0,0,1-3.511,2.28,1.791,1.791,0,0,0-.238.068l-.009,0a11.248,11.248,0,0,1-1.32.429c-.223.053-.445.1-.675.145v.006c-.267.052-.536.1-.806.128a11.518,11.518,0,0,1-1.451.078l-1.678-.012-6.712-.049a1.846,1.846,0,1,0-.027,3.692h.027l6.712-.049,1.678-.013a15.016,15.016,0,0,0,1.9-.13c.215-.029.428-.068.642-.107,0,.006,0,.011,0,.016a13.9,13.9,0,0,0,11.464-9.242,16.18,16.18,0,0,0,.894-5.043,16.181,16.181,0,0,0-.894-5.043" transform="translate(-367.467 -0.407)" fill="#47545d"/>
      </g>
    </g>
  </g>
</svg>
