<svg height="30" viewBox="0 0 147.455 30" width="147.455" xmlns="http://www.w3.org/2000/svg" xmlns:xlink="http://www.w3.org/1999/xlink"><clipPath id="a"><path d="m0 0h147.455v30h-147.455z"/></clipPath><clipPath id="b"><path d="m0 0h11.842v27.884h-11.842z"/></clipPath><clipPath id="c"><path d="m0 0h13.647v17.099h-13.647z"/></clipPath><clipPath id="d"><path d="m0 0h3.924v26.995h-3.924z"/></clipPath><clipPath id="e"><path d="m0 0h3.923v26.995h-3.923z"/></clipPath><clipPath id="f"><path d="m0 0h11.843v27.884h-11.843z"/></clipPath><g clip-path="url(#a)"><g clip-path="url(#a)"><g clip-path="url(#b)" opacity=".5" transform="translate(98.439 .511)"><path d="m405.888 3.253a1.852 1.852 0 0 0 -1.035-1.053 1.786 1.786 0 0 0 -1.458 0 1.9 1.9 0 0 0 -1.035 1.048l-8.167 24.232a.764.764 0 0 1 .116.116c.86 1.159.565 1.188 1.444 2.334l1.6-.063 8.53-25.137a1.867 1.867 0 0 0 .01-1.479" fill="#4b5e69" transform="translate(-394.193 -2.046)"/></g><g clip-path="url(#c)" opacity=".5" transform="translate(45.917 1.384)"><path d="m186.565 22.642 10.561-14.017a1.93 1.93 0 0 0 -.378-2.7 1.8 1.8 0 0 0 -1.416-.355 1.9 1.9 0 0 0 -1.259.762l-10.2 13.546a20.292 20.292 0 0 1 2.695 2.766" fill="#4b5e69" transform="translate(-183.87 -5.543)"/></g><g clip-path="url(#d)" opacity=".5" transform="translate(0 2.144)"><path d="m3.835 9.871c-.349-.12-.7-.245-1.047-.363-.928-.314-1.858-.617-2.788-.922l.106 25.086a1.863 1.863 0 0 0 .584 1.359 1.859 1.859 0 0 0 1.37.55 1.788 1.788 0 0 0 1.34-.581 1.9 1.9 0 0 0 .528-1.371z" fill="#4b5e69" transform="translate(0 -8.586)"/></g><g clip-path="url(#e)" opacity=".5" transform="translate(122.309 2.144)"><path d="m493.614 9.871c-.349-.12-.7-.245-1.047-.363-.928-.313-1.858-.617-2.788-.921l.106 25.086a1.936 1.936 0 0 0 1.954 1.909 1.788 1.788 0 0 0 1.335-.582 1.9 1.9 0 0 0 .528-1.371z" fill="#4b5e69" transform="translate(-489.779 -8.586)"/></g><g clip-path="url(#f)" opacity=".5" transform="translate(80.664 .511)"><path d="m334.71 3.253a1.853 1.853 0 0 0 -1.035-1.053 1.788 1.788 0 0 0 -1.458 0 1.9 1.9 0 0 0 -1.034 1.048l-8.168 24.232a.775.775 0 0 1 .116.116c.86 1.159.548.714 1.426 1.859l1.591.474 8.551-25.2a1.867 1.867 0 0 0 .01-1.479" fill="#4b5e69" transform="translate(-323.015 -2.046)"/></g><g fill="#47545d"><path d="m157.2 16.575c.317 1.041.094 11.5.094 11.5a1.868 1.868 0 0 1 -1.893 1.893 1.9 1.9 0 0 1 -1.367-.547 1.792 1.792 0 0 1 -.568-1.346v-10.724l-10.049-14.092a2.349 2.349 0 0 1 -.336-1.259 1.809 1.809 0 0 1 .5-1.263 1.879 1.879 0 0 1 1.451-.547 1.85 1.85 0 0 1 1.579.968s10.07 14.142 10.443 15.006a3.928 3.928 0 0 1 .151.411" transform="translate(-107.35 -.141)"/><path d="m22.916.757a1.865 1.865 0 0 0 -1.367-.568 1.793 1.793 0 0 0 -1.349.568 1.9 1.9 0 0 0 -.547 1.367v22.715l-14.496-20.939-.018.012-1.886-2.724a1.865 1.865 0 0 0 -1.243-.801 1.587 1.587 0 0 0 -1.395.363 2.072 2.072 0 0 0 -.258 2.64l14.743 21.31c.012.017.026.031.038.048l2.832 4.09a2.641 2.641 0 0 0 2.23 1.136h.5a2.7 2.7 0 0 0 1.956-.8 2.6 2.6 0 0 0 .82-1.935v-25.115a1.867 1.867 0 0 0 -.56-1.367" transform="translate(0 -.142)"/><path d="m285.777.105a1.864 1.864 0 0 1 1.473.1 1.87 1.87 0 0 1 .973 1.114l9.08 26.165a1.79 1.79 0 0 1 -.108 1.454 1.893 1.893 0 0 1 -1.118.951 1.866 1.866 0 0 1 -2.394-1.19l-9.083-26.162a1.9 1.9 0 0 1 .081-1.467 1.787 1.787 0 0 1 1.092-.965" transform="translate(-213.449)"/><path d="m356.913.105a1.864 1.864 0 0 1 1.473.1 1.867 1.867 0 0 1 .973 1.114l9.08 26.165a1.79 1.79 0 0 1 -.108 1.454 1.893 1.893 0 0 1 -1.118.951 1.866 1.866 0 0 1 -2.394-1.19l-9.079-26.162a1.9 1.9 0 0 1 .081-1.467 1.787 1.787 0 0 1 1.092-.965" transform="translate(-266.821)"/><path d="m514.028 10.066a13.9 13.9 0 0 0 -11.464-9.242s0 .01 0 .016c-.214-.038-.427-.078-.642-.107a15.11 15.11 0 0 0 -1.9-.13l-1.675-.012-6.712-.049h-.027a1.846 1.846 0 1 0 .027 3.692l6.712-.049 1.678-.012a11.519 11.519 0 0 1 1.451.078c.27.032.539.076.806.128v.006c.229.041.452.092.675.145a11.247 11.247 0 0 1 1.32.429h.009a1.791 1.791 0 0 0 .238.068 10.99 10.99 0 0 1 3.511 2.28 10.723 10.723 0 0 1 3.1 7.8 10.723 10.723 0 0 1 -3.1 7.8 10.99 10.99 0 0 1 -3.511 2.28 1.791 1.791 0 0 0 -.238.068h-.009a11.248 11.248 0 0 1 -1.32.429c-.223.053-.445.1-.675.145v.006c-.267.052-.536.1-.806.128a11.518 11.518 0 0 1 -1.451.078l-1.678-.012-6.712-.049a1.846 1.846 0 1 0 -.027 3.692h.027l6.712-.049 1.678-.013a15.016 15.016 0 0 0 1.9-.13c.215-.029.428-.068.642-.107v.016a13.9 13.9 0 0 0 11.464-9.242 16.18 16.18 0 0 0 .894-5.043 16.181 16.181 0 0 0 -.894-5.043" transform="translate(-367.467 -.407)"/></g></g></g></svg>