<svg height="31" viewBox="0 0 152.375 31" width="152.375" xmlns="http://www.w3.org/2000/svg"><g fill="#d2d6d9"><path d="m160.438 2.017a1.915 1.915 0 0 0 -1.07-1.087 1.848 1.848 0 0 0 -1.506 0 1.968 1.968 0 0 0 -1.069 1.083l-8.439 25.038a.76.76 0 0 1 .119.12c.889 1.2.584 1.228 1.492 2.412l1.648-.064 8.815-25.975a1.928 1.928 0 0 0 .01-1.528" transform="translate(-46.629 -.243)"/><path d="m71.984 19.743 10.916-14.507a1.928 1.928 0 0 0 .383-1.479 1.921 1.921 0 0 0 -.773-1.317 1.855 1.855 0 0 0 -1.463-.368 1.971 1.971 0 0 0 -1.3.789l-10.547 14.019a21.022 21.022 0 0 1 2.785 2.863" transform="translate(-21.75 -.644)"/><path d="m3.963 4.558c-.361-.124-.72-.253-1.082-.376-.958-.322-1.92-.636-2.881-.951l.11 25.923a1.927 1.927 0 0 0 .6 1.4 1.923 1.923 0 0 0 1.416.569 1.85 1.85 0 0 0 1.38-.6 1.957 1.957 0 0 0 .545-1.417z" transform="translate(0 -1.016)"/><path d="m188.289 4.558c-.361-.124-.72-.253-1.082-.376-.959-.323-1.92-.637-2.881-.952l.109 25.923a2 2 0 0 0 2.019 1.973 1.85 1.85 0 0 0 1.38-.6 1.957 1.957 0 0 0 .545-1.417z" transform="translate(-57.936 -1.016)"/><path d="m133.65 2.017a1.917 1.917 0 0 0 -1.07-1.087 1.848 1.848 0 0 0 -1.506 0 1.968 1.968 0 0 0 -1.074 1.085l-8.439 25.038a.759.759 0 0 1 .119.12c.889 1.2.566.738 1.474 1.921l1.644.49 8.836-26.04a1.928 1.928 0 0 0 .01-1.528" transform="translate(-38.209 -.243)"/></g><path d="m68.442 17c.327 1.076.1 5.208.1 6.54v5.346a1.93 1.93 0 0 1 -1.956 1.956 1.962 1.962 0 0 1 -1.413-.565 1.852 1.852 0 0 1 -.587-1.391v-11.08l-10.391-14.562a2.427 2.427 0 0 1 -.348-1.3 1.866 1.866 0 0 1 .522-1.3 1.938 1.938 0 0 1 1.5-.565 1.909 1.909 0 0 1 1.631 1s10.4 14.613 10.786 15.501a4.053 4.053 0 0 1 .156.425" fill="#fff" transform="translate(-16.925 -.023)"/><path d="m23.68.658a1.928 1.928 0 0 0 -1.412-.587 1.856 1.856 0 0 0 -1.391.587 1.964 1.964 0 0 0 -.566 1.413v23.473l-14.982-21.637-.019.012-1.948-2.819a1.924 1.924 0 0 0 -1.284-.824 1.646 1.646 0 0 0 -1.443.375 2.144 2.144 0 0 0 -.266 2.728c.014.021 15.238 22.021 15.238 22.021.012.018.027.032.039.049l2.927 4.226a2.729 2.729 0 0 0 2.3 1.174h.527a2.8 2.8 0 0 0 2.022-.826 2.688 2.688 0 0 0 .848-2v-25.953a1.928 1.928 0 0 0 -.59-1.412" fill="#fff" transform="translate(0 -.023)"/><path d="m108.393.109a1.927 1.927 0 0 1 1.523.106 1.937 1.937 0 0 1 1.005 1.151l9.379 27.034a1.852 1.852 0 0 1 -.111 1.5 1.959 1.959 0 0 1 -1.155.983 1.927 1.927 0 0 1 -2.473-1.229l-9.38-27.031a1.966 1.966 0 0 1 .084-1.517 1.849 1.849 0 0 1 1.129-1" fill="#fff" transform="translate(-33.653 -.001)"/><path d="m135.165.109a1.927 1.927 0 0 1 1.523.106 1.935 1.935 0 0 1 1.005 1.151l9.383 27.034a1.852 1.852 0 0 1 -.111 1.5 1.959 1.959 0 0 1 -1.155.983 1.928 1.928 0 0 1 -2.473-1.229l-9.384-27.031a1.966 1.966 0 0 1 .084-1.517 1.849 1.849 0 0 1 1.129-1" fill="#fff" transform="translate(-42.067 -.001)"/><path d="m209.386 10.046a14.369 14.369 0 0 0 -11.846-9.546v.013c-.221-.04-.442-.08-.664-.11a15.579 15.579 0 0 0 -1.96-.134l-1.735-.014-6.935-.05h-.028a1.907 1.907 0 1 0 .028 3.814l6.935-.051 1.734-.012a11.953 11.953 0 0 1 1.5.08c.28.033.557.079.833.132v.006c.237.043.468.1.7.15a11.646 11.646 0 0 1 1.365.444h.01a1.886 1.886 0 0 0 .246.07 11.356 11.356 0 0 1 3.623 2.362 11.081 11.081 0 0 1 3.207 8.059 11.081 11.081 0 0 1 -3.207 8.059 11.356 11.356 0 0 1 -3.628 2.356 1.784 1.784 0 0 0 -.246.07h-.01a11.776 11.776 0 0 1 -1.365.444c-.23.055-.46.108-.7.15v.006c-.276.053-.553.1-.833.132a11.953 11.953 0 0 1 -1.5.08l-1.734-.013-6.935-.05a1.907 1.907 0 1 0 -.028 3.814h.028l6.935-.051 1.734-.013a15.578 15.578 0 0 0 1.96-.134c.222-.03.443-.071.664-.11v.016a14.37 14.37 0 0 0 11.847-9.55 16.718 16.718 0 0 0 .924-5.211 16.715 16.715 0 0 0 -.924-5.211" fill="#fff" transform="translate(-57.936 -.065)"/></svg>