<svg xmlns="http://www.w3.org/2000/svg" width="152.375" height="31" viewBox="0 0 152.375 31">
  <g id="Raggruppa_75" data-name="Raggruppa 75" transform="translate(-375 -158.118)">
    <path id="Tracciato_78" data-name="Tracciato 78" d="M160.438,2.017A1.915,1.915,0,0,0,159.368.93a1.848,1.848,0,0,0-1.506,0,1.968,1.968,0,0,0-1.069,1.083l-8.439,25.038a.76.76,0,0,1,.119.12c.889,1.2.584,1.228,1.492,2.412l1.648-.064,8.815-25.975a1.928,1.928,0,0,0,.01-1.528" transform="translate(328.371 157.875)" fill="#d2d6d9"/>
    <path id="Tracciato_79" data-name="Tracciato 79" d="M71.984,19.743,82.9,5.236a1.928,1.928,0,0,0,.383-1.479,1.921,1.921,0,0,0-.773-1.317,1.855,1.855,0,0,0-1.463-.368,1.971,1.971,0,0,0-1.3.789L69.2,16.88a21.022,21.022,0,0,1,2.785,2.863" transform="translate(353.25 157.474)" fill="#d2d6d9"/>
    <path id="Tracciato_80" data-name="Tracciato 80" d="M3.963,4.558c-.361-.124-.72-.253-1.082-.376C1.923,3.86.961,3.546,0,3.231L.11,29.154a1.927,1.927,0,0,0,.6,1.4,1.923,1.923,0,0,0,1.416.569,1.85,1.85,0,0,0,1.38-.6,1.957,1.957,0,0,0,.545-1.417Z" transform="translate(375 157.102)" fill="#d2d6d9"/>
    <path id="Tracciato_81" data-name="Tracciato 81" d="M188.289,4.558c-.361-.124-.72-.253-1.082-.376-.959-.323-1.92-.637-2.881-.952l.109,25.923a2,2,0,0,0,2.019,1.973,1.85,1.85,0,0,0,1.38-.6,1.957,1.957,0,0,0,.545-1.417Z" transform="translate(317.064 157.102)" fill="#d2d6d9"/>
    <path id="Tracciato_82" data-name="Tracciato 82" d="M133.65,2.017A1.917,1.917,0,0,0,132.58.93a1.848,1.848,0,0,0-1.506,0A1.968,1.968,0,0,0,130,2.015l-8.439,25.038a.759.759,0,0,1,.119.12c.889,1.2.566.738,1.474,1.921l1.644.49,8.836-26.04a1.928,1.928,0,0,0,.01-1.528" transform="translate(336.791 157.875)" fill="#d2d6d9"/>
    <path id="Tracciato_83" data-name="Tracciato 83" d="M68.442,17c.327,1.076.1,5.208.1,6.54v5.346a1.93,1.93,0,0,1-1.956,1.956,1.962,1.962,0,0,1-1.413-.565,1.852,1.852,0,0,1-.587-1.391V17.806L54.195,3.244a2.427,2.427,0,0,1-.348-1.3,1.866,1.866,0,0,1,.522-1.3,1.938,1.938,0,0,1,1.5-.565,1.909,1.909,0,0,1,1.631,1S67.9,15.692,68.286,16.58a4.053,4.053,0,0,1,.156.425" transform="translate(358.075 158.095)" fill="#fff"/>
    <path id="Tracciato_84" data-name="Tracciato 84" d="M23.68.658A1.928,1.928,0,0,0,22.268.071a1.856,1.856,0,0,0-1.391.587,1.964,1.964,0,0,0-.566,1.413V25.544L5.329,3.907l-.019.012L3.362,1.1A1.924,1.924,0,0,0,2.078.276,1.646,1.646,0,0,0,.635.651,2.144,2.144,0,0,0,.369,3.379C.383,3.4,15.607,25.4,15.607,25.4c.012.018.027.032.039.049l2.927,4.226a2.729,2.729,0,0,0,2.3,1.174H21.4a2.8,2.8,0,0,0,2.022-.826,2.688,2.688,0,0,0,.848-2V2.07A1.928,1.928,0,0,0,23.68.658" transform="translate(375 158.095)" fill="#fff"/>
    <path id="Tracciato_85" data-name="Tracciato 85" d="M108.393.109a1.927,1.927,0,0,1,1.523.106,1.937,1.937,0,0,1,1.005,1.151L120.3,28.4a1.852,1.852,0,0,1-.111,1.5,1.959,1.959,0,0,1-1.155.983,1.927,1.927,0,0,1-2.473-1.229L107.181,2.623a1.966,1.966,0,0,1,.084-1.517,1.849,1.849,0,0,1,1.129-1" transform="translate(341.347 158.117)" fill="#fff"/>
    <path id="Tracciato_86" data-name="Tracciato 86" d="M135.165.109a1.927,1.927,0,0,1,1.523.106,1.935,1.935,0,0,1,1.005,1.151L147.076,28.4a1.852,1.852,0,0,1-.111,1.5,1.959,1.959,0,0,1-1.155.983,1.928,1.928,0,0,1-2.473-1.229L133.953,2.623a1.966,1.966,0,0,1,.084-1.517,1.849,1.849,0,0,1,1.129-1" transform="translate(332.933 158.117)" fill="#fff"/>
    <path id="Tracciato_87" data-name="Tracciato 87" d="M209.386,10.046A14.369,14.369,0,0,0,197.54.5V.513c-.221-.04-.442-.08-.664-.11a15.579,15.579,0,0,0-1.96-.134L193.181.255l-6.935-.05h-.028a1.907,1.907,0,1,0,.028,3.814l6.935-.051,1.734-.012a11.953,11.953,0,0,1,1.5.08c.28.033.557.079.833.132v.006c.237.043.468.1.7.15a11.646,11.646,0,0,1,1.365.444l.01,0a1.886,1.886,0,0,0,.246.07A11.356,11.356,0,0,1,203.192,7.2a11.081,11.081,0,0,1,3.207,8.059,11.081,11.081,0,0,1-3.207,8.059,11.356,11.356,0,0,1-3.628,2.356,1.784,1.784,0,0,0-.246.07l-.01,0a11.776,11.776,0,0,1-1.365.444c-.23.055-.46.108-.7.15v.006c-.276.053-.553.1-.833.132a11.953,11.953,0,0,1-1.5.08l-1.734-.013-6.935-.05a1.907,1.907,0,1,0-.028,3.814h.028l6.935-.051,1.734-.013a15.578,15.578,0,0,0,1.96-.134c.222-.03.443-.071.664-.11v.016a14.37,14.37,0,0,0,11.847-9.55,16.718,16.718,0,0,0,.924-5.211,16.715,16.715,0,0,0-.924-5.211" transform="translate(317.064 158.053)" fill="#fff"/>
  </g>
</svg>
