<svg height="72.047" viewBox="0 0 85 72.047" width="85" xmlns="http://www.w3.org/2000/svg"><path d="m329.119 1296.476h85v61.283a3.425 3.425 0 0 1 -3.275 3.558h-78.444a3.431 3.431 0 0 1 -3.28-3.563z" fill="#2a2f33" transform="translate(-329.119 -1289.27)"/><g fill="#b9c8ce"><path d="m411.127 1284.525h-79.016a3.176 3.176 0 0 0 -2.992 3.333v5.063h85v-5.062a3.177 3.177 0 0 0 -2.992-3.333" transform="translate(-329.119 -1284.525)"/><path d="m375.317 1365.779h-12.6v-13.015a1.767 1.767 0 0 1 1.767-1.767h9.068a1.767 1.767 0 0 1 1.767 1.767z" transform="translate(-344.852 -1312.044)"/><path d="m409.676 1361.856h-12.6v-18.972a1.768 1.768 0 0 1 1.767-1.767h9.069a1.767 1.767 0 0 1 1.767 1.767z" transform="translate(-360.942 -1308.061)"/><path d="m444.291 1355.217h-12.6v-29.055a1.767 1.767 0 0 1 1.767-1.767h9.068a1.767 1.767 0 0 1 1.767 1.767z" transform="translate(-377.153 -1301.283)"/><path d="m51.024.721h-52.724a1.974 1.974 0 0 1 -1.8-2.111 1.974 1.974 0 0 1 1.8-2.11h52.724a1.974 1.974 0 0 1 1.8 2.11 1.974 1.974 0 0 1 -1.8 2.111z" transform="translate(18.04 54.995)"/></g></svg>