<svg height="70.906" viewBox="0 0 82.879 70.906" width="82.879" xmlns="http://www.w3.org/2000/svg"><path d="m49.158 684.459h-40.835a6.754 6.754 0 0 0 -6.754 6.754v25.977a6.773 6.773 0 0 0 .052.8l-.052-.019v14.792a18.245 18.245 0 0 1 6.576-7.682 6.321 6.321 0 0 1 3.643-1.139h37.37a6.754 6.754 0 0 0 6.754-6.754v-25.975a6.754 6.754 0 0 0 -6.754-6.754" fill="#2a2f33" transform="translate(-1.569 -661.858)"/><path d="m96.174 645.967a9.133 9.133 0 0 0 -9.133-9.133h-54.021a9.133 9.133 0 0 0 -9.133 9.133v34.258a9.134 9.134 0 0 0 9.133 9.133h50.716a4.709 4.709 0 0 1 2.539.74c7.692 4.932 9.9 10.992 9.9 10.992v-55.123z" fill="#b9c8ce" transform="translate(-13.296 -636.834)"/><g fill="#fff"><path d="m36.11-.192h-38.088a1.786 1.786 0 0 1 -1.787-1.786 1.786 1.786 0 0 1 1.787-1.786h38.088a1.786 1.786 0 0 1 1.79 1.786 1.786 1.786 0 0 1 -1.79 1.786z" transform="translate(29.528 21.434)"/><path d="m36.11-.192h-38.088a1.786 1.786 0 0 1 -1.787-1.786 1.786 1.786 0 0 1 1.787-1.786h38.088a1.786 1.786 0 0 1 1.79 1.786 1.786 1.786 0 0 1 -1.79 1.786z" transform="translate(29.528 35.046)"/></g></svg>