<svg xmlns="http://www.w3.org/2000/svg" width="82.879" height="70.906" viewBox="0 0 82.879 70.906">
  <g id="Raggruppa_1379" data-name="Raggruppa 1379" transform="translate(0)">
    <path id="Tracciato_3025" data-name="Tracciato 3025" d="M49.158,684.459H8.323a6.754,6.754,0,0,0-6.754,6.754V717.19a6.773,6.773,0,0,0,.052.8l-.052-.019v14.792a18.245,18.245,0,0,1,6.576-7.682,6.321,6.321,0,0,1,3.643-1.139h37.37a6.754,6.754,0,0,0,6.754-6.754V691.213a6.754,6.754,0,0,0-6.754-6.754" transform="translate(-1.569 -661.858)" fill="#2a2f33"/>
    <path id="Tracciato_3026" data-name="Tracciato 3026" d="M96.174,645.967a9.133,9.133,0,0,0-9.133-9.133H33.02a9.133,9.133,0,0,0-9.133,9.133v34.258a9.134,9.134,0,0,0,9.133,9.133H83.736a4.709,4.709,0,0,1,2.539.74c7.692,4.932,9.9,10.992,9.9,10.992V645.967Z" transform="translate(-13.296 -636.834)" fill="#b9c8ce"/>
    <path id="Tracciato_3039" data-name="Tracciato 3039" d="M36.11-.192H-1.978A1.786,1.786,0,0,1-3.765-1.978,1.786,1.786,0,0,1-1.978-3.764H36.11A1.786,1.786,0,0,1,37.9-1.978,1.786,1.786,0,0,1,36.11-.192Z" transform="translate(29.528 21.434)" fill="#fff"/>
    <path id="Tracciato_3040" data-name="Tracciato 3040" d="M36.11-.192H-1.978A1.786,1.786,0,0,1-3.765-1.978,1.786,1.786,0,0,1-1.978-3.764H36.11A1.786,1.786,0,0,1,37.9-1.978,1.786,1.786,0,0,1,36.11-.192Z" transform="translate(29.528 35.046)" fill="#fff"/>
  </g>
</svg>
