<svg xmlns="http://www.w3.org/2000/svg" width="154.827" height="63.195" viewBox="0 0 154.827 63.195">
  <g id="Raggruppa_1399" data-name="Raggruppa 1399" transform="translate(-870 -1578.6)">
    <g id="Raggruppa_1390" data-name="Raggruppa 1390" transform="translate(873.844 1594.627)">
      <path id="Tracciato_3042" data-name="Tracciato 3042" d="M8.979,13.809c8.332,0,23.3,6.741,23.3,16.355s.743,17.189-7.59,17.189S7.482,38.9,5.438,30.164.646,13.809,8.979,13.809" transform="translate(-3.312 -13.809)" fill="#ebe8e4"/>
      <path id="Tracciato_3043" data-name="Tracciato 3043" d="M42.979,22.809c8.333,0,32.026,2.625,32.026,12.24,0,9.192.251,21.563-8.008,22.556-.023.009-7.933-1.251-8.3-1.251-8.333,0-17.21-8.448-19.254-17.189s-4.8-16.355,3.535-16.355" transform="translate(2.148 -12.364)" fill="#ebe8e4"/>
    </g>
    <g id="Raggruppa_1391" data-name="Raggruppa 1391" transform="translate(870 1578.6)">
      <path id="Tracciato_3044" data-name="Tracciato 3044" d="M19.552,14.322a7.214,7.214,0,0,0,3.955-.034C44.63,8.066,59.533,4.04,63.538,3.576c2.8-.308,5.339,1.214,8.3,3.93,4.657,4.258,8.88,8.451,12.845,12.56,1.9,1.973,4.229.428,5.25-2.821q1.114-4.1-2.872-5.479a117.039,117.039,0,0,1-10.677-7.03A18.542,18.542,0,0,0,61.716.142,541.058,541.058,0,0,0,7.33,8.66a1.16,1.16,0,0,0-.067,2.25Z" transform="translate(1.03 0.001)" fill="#2a2f33" fill-rule="evenodd"/>
      <path id="Tracciato_3045" data-name="Tracciato 3045" d="M75.728,37.4a3.17,3.17,0,0,0,4.247,3.084c2.384-.866,5.492-1.936,9.39-3.219C104.5,32.277,117.148,26.1,128.058,20.723a2.125,2.125,0,0,1,3.151.886c1.277,2.205,3.258,6.158,6.473,12.345,1.161,2.214,2.95,1.8,3.93-.607,1.544-3.772,1.265-5.886,0-6.973a55.161,55.161,0,0,1-7.58-8.3c-1.436-1.893-4.222-2.171-9.633-.779-19.209,4.946-34.73,9.215-46.493,13.066a2.985,2.985,0,0,0-2.048,2.749Z" transform="translate(12.16 2.638)" fill="#2a2f33" fill-rule="evenodd"/>
      <path id="Tracciato_3046" data-name="Tracciato 3046" d="M84.473,29.527A88.772,88.772,0,0,0,59.385,23.57c-5.716-.58-10.5-.194-21.639-.664-1.779-.079-3.366-1.25-4.979-2.658a35.368,35.368,0,0,0-9.574-5.259L4.374,9.767C1.1,10.1-.133,11.118.052,12.889c-.186,3.922.116,6.846,1.045,8.687A31.24,31.24,0,0,1,3.8,27.942C5.661,35.718,8.119,42.1,12.828,45.259c8.795,5.919,22.34,6.579,21.587-7.359-.129-2.392,0-4.921-.222-7.579,3.507.443,5.5,2.814,6.416,7.03,1.472,6.722,3.482,12.186,6.644,15.61C54.4,60.7,64.235,63.284,75.537,60.6c4.2-1,6.644-4.751,7.645-10.188.564-3.076.883-5.479,2.077-6.48,1.853-1.554,1.8-9.888,1.8-9.888a4.182,4.182,0,0,0-2.59-4.515M29.139,41.42c-.321,2.85-.328,4.2-3.1,4.272h0c-7.66.2-11.9-2.314-16-9.749a34.924,34.924,0,0,1-3.93-18.569c.043-1.322,1.571-2.554,4.315-1.857,9.615,2.443,15.352,6.28,16.66,9.687,1.9,3.987,2.565,11.49,2.051,16.217M75.014,57.307v0c-7.987,1.064-14.6-.15-20.032-3.708-6.545-4.279-10.045-11.671-10.3-21.811-.064-2.565,1.664-4.679,5.651-4.708,12.173-.072,20.575,2.521,25.3,6.751,1.879,1.679,2.636,4.093,2.879,7.312.786,10.452-.157,15.725-3.5,16.167" transform="translate(0 1.569)" fill="#2a2f33" fill-rule="evenodd"/>
    </g>
  </g>
</svg>
