<svg xmlns="http://www.w3.org/2000/svg" width="85" height="72.047" viewBox="0 0 85 72.047">
  <g id="Raggruppa_1378" data-name="Raggruppa 1378" transform="translate(0)">
    <path id="Tracciato_3011" data-name="Tracciato 3011" d="M329.119,1296.476h85v61.283a3.425,3.425,0,0,1-3.275,3.558H332.4a3.431,3.431,0,0,1-3.28-3.563Z" transform="translate(-329.119 -1289.27)" fill="#2a2f33"/>
    <path id="Tracciato_3012" data-name="Tracciato 3012" d="M411.127,1284.525H332.111a3.176,3.176,0,0,0-2.992,3.333v5.063h85v-5.062a3.177,3.177,0,0,0-2.992-3.333" transform="translate(-329.119 -1284.525)" fill="#b9c8ce"/>
    <path id="Tracciato_3013" data-name="Tracciato 3013" d="M375.317,1365.779h-12.6v-13.015a1.767,1.767,0,0,1,1.767-1.767h9.068a1.767,1.767,0,0,1,1.767,1.767Z" transform="translate(-344.852 -1312.044)" fill="#b9c8ce"/>
    <path id="Tracciato_3014" data-name="Tracciato 3014" d="M409.676,1361.856h-12.6v-18.972a1.768,1.768,0,0,1,1.767-1.767h9.069a1.767,1.767,0,0,1,1.767,1.767Z" transform="translate(-360.942 -1308.061)" fill="#b9c8ce"/>
    <path id="Tracciato_3015" data-name="Tracciato 3015" d="M444.291,1355.217h-12.6v-29.055a1.767,1.767,0,0,1,1.767-1.767h9.068a1.767,1.767,0,0,1,1.767,1.767Z" transform="translate(-377.153 -1301.283)" fill="#b9c8ce"/>
    <path id="Tracciato_3027" data-name="Tracciato 3027" d="M51.024.721H-1.7A1.974,1.974,0,0,1-3.5-1.39,1.974,1.974,0,0,1-1.7-3.5H51.024a1.974,1.974,0,0,1,1.8,2.11A1.974,1.974,0,0,1,51.024.721Z" transform="translate(18.04 54.995)" fill="#b9c8ce"/>
  </g>
</svg>
