<svg height="68.776" viewBox="0 0 106.181 68.776" width="106.181" xmlns="http://www.w3.org/2000/svg"><path d="m372.42 1616.732h-45.02a7.569 7.569 0 0 0 -7.569 7.568v28.571a7.587 7.587 0 0 0 .071.985l-.071-.027v16.371a19.684 19.684 0 0 1 6.382-7.84 9.251 9.251 0 0 1 5.654-1.924h40.55a7.568 7.568 0 0 0 7.569-7.568v-28.568a7.569 7.569 0 0 0 -7.569-7.568" fill="#2a2f33" transform="translate(-319.833 -1616.732)"/><path d="m343.192 1650.079a3.033 3.033 0 1 0 3.032-3.033 3.032 3.032 0 0 0 -3.032 3.033" fill="#b9c8ce" transform="translate(-328.688 -1628.067)"/><path d="m362.132 1650.079a3.033 3.033 0 1 0 3.032-3.033 3.032 3.032 0 0 0 -3.032 3.033" fill="#b9c8ce" transform="translate(-335.655 -1628.067)"/><path d="m439.178 1626.3h-54.963a7.6 7.6 0 0 0 -7.569 7.632v36.1a7.6 7.6 0 0 0 7.569 7.632h49.02a9.268 9.268 0 0 1 5.519 1.837c6.165 4.575 7.993 9.635 7.993 9.635v-55.2a7.6 7.6 0 0 0 -7.568-7.632" fill="#b9c8ce" transform="translate(-340.565 -1620.361)"/><g fill="#2a2f33"><path d="m456.545 1665.162a3.534 3.534 0 1 1 -3.534-3.534 3.534 3.534 0 0 1 3.534 3.534" transform="translate(-368.322 -1633.515)"/><path d="m434.474 1665.162a3.534 3.534 0 1 1 -3.534-3.534 3.534 3.534 0 0 1 3.534 3.534" transform="translate(-360.067 -1633.515)"/><path d="m412.4 1665.162a3.534 3.534 0 1 1 -3.534-3.534 3.534 3.534 0 0 1 3.534 3.534" transform="translate(-351.812 -1633.515)"/></g></svg>