<svg xmlns="http://www.w3.org/2000/svg" width="106.181" height="68.776" viewBox="0 0 106.181 68.776">
  <g id="Raggruppa_1235" data-name="Raggruppa 1235" transform="translate(-1402.853 -1845.364)">
    <path id="Tracciato_2939" data-name="Tracciato 2939" d="M372.42,1616.732H327.4a7.569,7.569,0,0,0-7.569,7.568v28.571a7.587,7.587,0,0,0,.071.985l-.071-.027V1670.2a19.684,19.684,0,0,1,6.382-7.84,9.251,9.251,0,0,1,5.654-1.924h40.55a7.568,7.568,0,0,0,7.569-7.568V1624.3a7.569,7.569,0,0,0-7.569-7.568" transform="translate(1083.02 228.632)" fill="#2a2f33"/>
    <path id="Tracciato_2941" data-name="Tracciato 2941" d="M343.192,1650.079a3.033,3.033,0,1,0,3.032-3.033,3.032,3.032,0,0,0-3.032,3.033" transform="translate(1074.165 217.297)" fill="#b9c8ce"/>
    <path id="Tracciato_2942" data-name="Tracciato 2942" d="M362.132,1650.079a3.033,3.033,0,1,0,3.032-3.033,3.032,3.032,0,0,0-3.032,3.033" transform="translate(1067.198 217.297)" fill="#b9c8ce"/>
    <path id="Tracciato_2936" data-name="Tracciato 2936" d="M439.178,1626.3H384.215a7.6,7.6,0,0,0-7.569,7.632v36.1a7.6,7.6,0,0,0,7.569,7.632h49.02a9.268,9.268,0,0,1,5.519,1.837c6.165,4.575,7.993,9.635,7.993,9.635v-55.2a7.6,7.6,0,0,0-7.568-7.632" transform="translate(1062.288 225.003)" fill="#b9c8ce"/>
    <path id="Tracciato_2937" data-name="Tracciato 2937" d="M456.545,1665.162a3.534,3.534,0,1,1-3.534-3.534,3.534,3.534,0,0,1,3.534,3.534" transform="translate(1034.531 211.849)" fill="#2a2f33"/>
    <path id="Tracciato_2938" data-name="Tracciato 2938" d="M434.474,1665.162a3.534,3.534,0,1,1-3.534-3.534,3.534,3.534,0,0,1,3.534,3.534" transform="translate(1042.786 211.849)" fill="#2a2f33"/>
    <path id="Tracciato_2940" data-name="Tracciato 2940" d="M412.4,1665.162a3.534,3.534,0,1,1-3.534-3.534,3.534,3.534,0,0,1,3.534,3.534" transform="translate(1051.041 211.849)" fill="#2a2f33"/>
  </g>
</svg>
