<svg height="24.932048" viewBox="0 0 24.932 24.9320482" width="24.932" xmlns="http://www.w3.org/2000/svg"><g style="stroke:#fff;stroke-width:1.5;fill:none;fill-rule:evenodd;stroke-linecap:round;stroke-linejoin:round" transform="translate(.75 .75)"><path d="m11.856 12.63c-.0933005-.0117124-.1876995-.0117124-.281 0-2.0936409-.0765947-3.74016139-1.8160012-3.70185765-3.91069255.03830374-2.09469133 1.74731614-3.77273825 3.84235765-3.77273825 2.0950415 0 3.8040539 1.67804692 3.8423576 3.77273825.0383038 2.09469135-1.6082167 3.83409785-3.7018576 3.91069255z"/><path d="m19.612 20.362c-2.1539056 1.9798396-4.9744165 3.0759115-7.9 3.0700238-2.92316874.0041281-5.74087148-1.0918237-7.893-3.0700238.20723892-1.2657528.96744891-2.3734455 2.074-3.022 3.58914617-2.1324714 8.0568538-2.1324714 11.646 0 1.1061694.648773 1.8659894 1.7564314 2.073 3.022z"/><path d="m23.432 11.716c0 6.4705681-5.2454319 11.716-11.716 11.716-6.47056813 0-11.716-5.2454319-11.716-11.716 0-6.47056813 5.24543187-11.716 11.716-11.716 3.1072764 0 6.0872868 1.23436074 8.284463 3.43153695 2.1971763 2.19717621 3.431537 5.17718666 3.431537 8.28446305z"/></g></svg>