<svg height="24.932" viewBox="0 0 24.932 24.932" width="24.932" xmlns="http://www.w3.org/2000/svg"><g fill="none" stroke="#353c44" stroke-linecap="round" stroke-linejoin="round" stroke-width="1.5" transform="translate(.75 .75)"><path d="m3.983 7.674a1.128 1.128 0 0 0 -.281 0 3.843 3.843 0 1 1 .281 0z" transform="translate(7.873 4.956)"/><path d="m15.793 4.622a11.639 11.639 0 0 1 -7.9 3.07 11.639 11.639 0 0 1 -7.893-3.07 4.31 4.31 0 0 1 2.074-3.022 11.4 11.4 0 0 1 11.646 0 4.31 4.31 0 0 1 2.073 3.022z" transform="translate(3.819 15.74)"/><path d="m23.432 11.716a11.716 11.716 0 1 1 -11.716-11.716 11.716 11.716 0 0 1 11.716 11.716z"/></g></svg>