<svg xmlns="http://www.w3.org/2000/svg" width="24.932" height="24.932" viewBox="0 0 24.932 24.932">
  <g id="Raggruppa_907" data-name="Raggruppa 907" transform="translate(0.75 0.75)">
    <path id="Vector" d="M3.983,7.674a1.128,1.128,0,0,0-.281,0,3.843,3.843,0,1,1,.281,0Z" transform="translate(7.873 4.956)" fill="none" stroke="#353c44" stroke-linecap="round" stroke-linejoin="round" stroke-width="1.5"/>
    <path id="Vector-2" data-name="Vector" d="M15.793,4.622a11.639,11.639,0,0,1-7.9,3.07A11.639,11.639,0,0,1,0,4.622,4.31,4.31,0,0,1,2.074,1.6a11.4,11.4,0,0,1,11.646,0A4.31,4.31,0,0,1,15.793,4.622Z" transform="translate(3.819 15.74)" fill="none" stroke="#353c44" stroke-linecap="round" stroke-linejoin="round" stroke-width="1.5"/>
    <path id="Vector-3" data-name="Vector" d="M23.432,11.716A11.716,11.716,0,1,1,11.716,0,11.716,11.716,0,0,1,23.432,11.716Z" fill="none" stroke="#353c44" stroke-linecap="round" stroke-linejoin="round" stroke-width="1.5"/>
  </g>
</svg>
